<svg xmlns="http://www.w3.org/2000/svg" width="256" height="256" viewBox="0 0 256 256" fill="none">
  <rect width="256" height="256" rx="56" fill="#07111F"/>
  <rect x="18" y="18" width="220" height="220" rx="42" fill="url(#bg)" stroke="url(#stroke)" stroke-width="4"/>
  <path d="M79 55H110L86 97H118L71 161H102L85 201H56L72 161H39L86 97H57L79 55Z" fill="url(#bolt)"/>
  <circle cx="174" cy="88" r="30" fill="#091726" stroke="#15E6FF" stroke-width="4"/>
  <path d="M174 68L180 82H195L183 91L188 106L174 97L160 106L165 91L153 82H168L174 68Z" fill="#15E6FF"/>
  <circle cx="174" cy="88" r="7" fill="#FF4D7A"/>
  <path d="M122 184C136.5 162 162.5 149 191 149C193.7 149 196.4 149.1 199 149.3" stroke="#15E6FF" stroke-width="10" stroke-linecap="round"/>
  <path d="M122 184C141 181.2 160.8 189.4 172 205" stroke="#FF4D7A" stroke-width="10" stroke-linecap="round"/>
  <defs>
    <linearGradient id="bg" x1="36" y1="28" x2="228" y2="230" gradientUnits="userSpaceOnUse">
      <stop stop-color="#0A2233"/>
      <stop offset="1" stop-color="#120D18"/>
    </linearGradient>
    <linearGradient id="stroke" x1="54" y1="34" x2="228" y2="230" gradientUnits="userSpaceOnUse">
      <stop stop-color="#15E6FF" stop-opacity=".9"/>
      <stop offset="1" stop-color="#FF4D7A" stop-opacity=".65"/>
    </linearGradient>
    <linearGradient id="bolt" x1="39" y1="55" x2="118" y2="201" gradientUnits="userSpaceOnUse">
      <stop stop-color="#15E6FF"/>
      <stop offset="1" stop-color="#0FB7FF"/>
    </linearGradient>
  </defs>
</svg>
