<svg width="128" height="128" viewBox="0 0 128 128" fill="none" xmlns="http://www.w3.org/2000/svg">
  <rect x="8" y="8" width="112" height="112" rx="28" fill="#10141B"/>
  <rect x="8" y="8" width="112" height="112" rx="28" stroke="#2A3442" stroke-width="2"/>
  <path d="M30 39C30 32.925 34.925 28 41 28H82C89.18 28 95 33.82 95 41V43H52C48.686 43 46 45.686 46 49C46 52.314 48.686 55 52 55H76C86.493 55 95 63.507 95 74C95 84.493 86.493 93 76 93H34V78H75C78.314 78 81 75.314 81 72C81 68.686 78.314 66 75 66H49C38.507 66 30 57.493 30 47V39Z" fill="url(#paint0_linear_1_2)"/>
  <path d="M69 34L102 34L59 94H26L69 34Z" fill="url(#paint1_linear_1_2)"/>
  <circle cx="94" cy="34" r="8" fill="#FB7185"/>
  <defs>
    <linearGradient id="paint0_linear_1_2" x1="30" y1="28" x2="95" y2="93" gradientUnits="userSpaceOnUse">
      <stop stop-color="#F8FBFF"/>
      <stop offset="1" stop-color="#D7DFEC"/>
    </linearGradient>
    <linearGradient id="paint1_linear_1_2" x1="102" y1="34" x2="34" y2="95" gradientUnits="userSpaceOnUse">
      <stop stop-color="#22D3EE"/>
      <stop offset="1" stop-color="#38BDF8"/>
    </linearGradient>
  </defs>
</svg>
